<svg width="500" height="300" viewBox="0 0 500 300" fill="none" xmlns="http://www.w3.org/2000/svg">
<g clip-path="url(#clip0)">
<rect width="500" height="300" rx="5" fill="url(#paint0_linear)"/>
<g clip-path="url(#clip1)">
<path d="M164.212 132.11C160.063 127.963 153.838 126.337 148.191 127.937L128.786 133.429C122.488 135.211 116.711 138.6 112.084 143.227L112.034 143.277C110.888 144.42 110.885 146.275 112.028 147.421C113.17 148.567 115.025 148.569 116.171 147.427L116.225 147.373C120.148 143.45 125.044 140.577 130.382 139.067L149.787 133.574C153.411 132.548 157.407 133.592 160.068 136.254C162.754 138.939 163.779 142.878 162.745 146.533L157.253 165.938C155.741 171.28 152.867 176.179 148.941 180.105L96.5037 232.541L87.6354 223.673L102.433 208.876C106.514 204.794 106.517 197.97 102.434 193.886C98.3022 189.754 91.5791 189.755 87.4474 193.886L72.6479 208.686L63.78 199.818L98.0825 165.515C99.2265 164.371 99.2265 162.516 98.0825 161.372C96.9384 160.228 95.0833 160.228 93.939 161.372L80.8895 174.421L59.9201 171.499C51.8924 170.38 43.6804 173.134 37.9499 178.865L28.6229 188.192C27.4964 189.319 27.4961 191.208 28.6229 192.335L38.1769 201.889C41.3193 205.032 45.4974 206.762 49.9415 206.762C53.393 206.762 56.6813 205.715 59.4513 203.776L68.5041 212.829L60.8822 220.451C59.7381 221.595 59.7381 223.45 60.8822 224.595L71.7256 235.438C72.853 236.565 74.7412 236.566 75.8691 235.438L83.4914 227.816L92.5445 236.869C90.6062 239.639 89.5579 242.927 89.5579 246.379C89.5579 250.823 91.2885 255.001 94.4309 258.143L103.985 267.697C105.112 268.824 107.002 268.824 108.129 267.697L117.455 258.37C123.186 252.64 125.939 244.427 124.821 236.4L121.9 215.434L153.085 184.248C157.717 179.616 161.108 173.837 162.891 167.534L168.384 148.128C169.994 142.432 168.396 136.295 164.212 132.11ZM42.3204 197.746L34.8377 190.264L42.0931 183.008C46.5319 178.569 52.8929 176.435 59.1112 177.302L75.6957 179.614L57.5631 197.746C55.5276 199.782 52.8208 200.903 49.9418 200.903C47.0628 200.903 44.3563 199.782 42.3204 197.746V197.746ZM73.7975 229.223L67.0973 222.523L74.6978 214.923C74.7052 214.915 74.7134 214.909 74.7207 214.902L91.592 198.03C93.4389 196.184 96.4436 196.184 98.2896 198.03C100.107 199.847 100.112 202.909 98.2908 204.73L73.7975 229.223ZM119.018 237.209C119.884 243.426 117.751 249.788 113.312 254.227L106.057 261.482L98.5741 254C96.5385 251.964 95.4173 249.257 95.4173 246.379C95.4173 243.503 96.5359 240.8 98.5665 238.765C98.5694 238.763 98.5729 238.76 98.5759 238.757L116.707 220.626L119.018 237.209Z" fill="black"/>
<path d="M127.331 182.139C130.844 182.139 134.146 180.772 136.63 178.288C141.757 173.16 141.757 164.818 136.63 159.69C131.561 154.622 123.101 154.622 118.033 159.69C112.963 164.76 112.963 173.219 118.033 178.288C120.516 180.772 123.818 182.139 127.331 182.139ZM122.176 163.834C124.986 161.023 129.676 161.023 132.487 163.834C135.33 166.676 135.329 171.302 132.487 174.145C129.676 176.955 124.987 176.956 122.176 174.145C119.365 171.334 119.364 166.644 122.176 163.834Z" fill="black"/>
<path d="M49.2059 221.457C50.35 220.313 50.35 218.458 49.2059 217.314C48.0619 216.17 46.2068 216.17 45.0628 217.314L19.8581 242.518C18.7141 243.663 18.7141 245.518 19.8581 246.662C20.9869 247.79 22.8724 247.791 24.0013 246.662L49.2059 221.457Z" fill="black"/>
<path d="M56.2249 240.923C55.0808 239.78 53.2258 239.78 52.0814 240.923L23.3254 269.68C22.1813 270.824 22.1813 272.679 23.3254 273.823C24.4542 274.952 26.34 274.952 27.4688 273.823L56.2249 245.067C57.3689 243.923 57.3689 242.068 56.2249 240.923Z" fill="black"/>
<path d="M78.2544 241.891L64.0082 256.137C62.8642 257.281 62.8642 259.136 64.0082 260.281C64.5804 260.853 65.3301 261.139 66.0798 261.139C66.8295 261.139 67.5795 260.853 68.1514 260.281L82.3976 246.035C83.5416 244.891 83.5419 243.035 82.3976 241.891C81.2536 240.748 79.3985 240.748 78.2544 241.891Z" fill="black"/>
<path d="M59.0168 267.398C58.4028 265.926 56.6672 265.201 55.1907 265.813C53.7179 266.424 52.994 268.167 53.6057 269.64C54.2171 271.113 55.9574 271.837 57.4319 271.225C58.9046 270.613 59.6306 268.873 59.0168 267.398Z" fill="black"/>
<path d="M102.227 155.644C103.218 158.025 106.733 157.997 107.664 155.577C108.111 154.415 107.76 153.046 106.79 152.258C105.838 151.486 104.48 151.382 103.426 152.011C102.191 152.748 101.684 154.32 102.227 155.644Z" fill="black"/>
</g>
<path d="M12.89 41V21.68H15.77L25.85 35.9V21.68H29.09V41H26.21L16.16 26.81V41H12.89ZM40.0998 41.3C37.6198 41.3 35.6998 40.69 34.3398 39.47C32.9798 38.25 32.2998 36.38 32.2998 33.86C32.2998 31.58 32.8798 29.78 34.0398 28.46C35.1998 27.14 36.9598 26.48 39.3198 26.48C41.4798 26.48 43.0998 27.05 44.1798 28.19C45.2798 29.31 45.8298 30.76 45.8298 32.54V35.18H35.4198C35.5798 36.56 36.0798 37.51 36.9198 38.03C37.7598 38.55 39.0398 38.81 40.7598 38.81C41.4798 38.81 42.2198 38.74 42.9798 38.6C43.7398 38.46 44.3998 38.28 44.9598 38.06V40.46C44.3198 40.74 43.5798 40.95 42.7398 41.09C41.9198 41.23 41.0398 41.3 40.0998 41.3ZM35.4198 33.05H42.9498V32.06C42.9498 31.08 42.6798 30.32 42.1398 29.78C41.5998 29.22 40.6898 28.94 39.4098 28.94C37.8898 28.94 36.8398 29.27 36.2598 29.93C35.6998 30.59 35.4198 31.63 35.4198 33.05ZM52.3824 41L46.7724 26.78H50.1624L54.1524 37.82L58.1424 26.78H61.5024L55.9224 41H52.3824ZM70.2755 41.3C67.7955 41.3 65.8755 40.69 64.5155 39.47C63.1555 38.25 62.4755 36.38 62.4755 33.86C62.4755 31.58 63.0555 29.78 64.2155 28.46C65.3755 27.14 67.1355 26.48 69.4955 26.48C71.6555 26.48 73.2755 27.05 74.3555 28.19C75.4555 29.31 76.0055 30.76 76.0055 32.54V35.18H65.5955C65.7555 36.56 66.2555 37.51 67.0955 38.03C67.9355 38.55 69.2155 38.81 70.9355 38.81C71.6555 38.81 72.3955 38.74 73.1555 38.6C73.9155 38.46 74.5755 38.28 75.1355 38.06V40.46C74.4955 40.74 73.7555 40.95 72.9155 41.09C72.0955 41.23 71.2155 41.3 70.2755 41.3ZM65.5955 33.05H73.1255V32.06C73.1255 31.08 72.8555 30.32 72.3155 29.78C71.7755 29.22 70.8655 28.94 69.5855 28.94C68.0655 28.94 67.0155 29.27 66.4355 29.93C65.8755 30.59 65.5955 31.63 65.5955 33.05ZM79.1888 41V26.78H82.1888L82.3688 28.43C83.0488 27.99 83.8588 27.59 84.7988 27.23C85.7388 26.87 86.6688 26.62 87.5888 26.48V28.97C87.0288 29.07 86.4188 29.22 85.7588 29.42C85.1188 29.6 84.5088 29.81 83.9288 30.05C83.3488 30.27 82.8588 30.5 82.4588 30.74V41H79.1888ZM102.734 41.3C100.234 41.3 98.2241 40.98 96.7041 40.34V37.46C97.5641 37.78 98.4841 38.04 99.4641 38.24C100.464 38.44 101.454 38.54 102.434 38.54C103.974 38.54 105.124 38.36 105.884 38C106.664 37.64 107.054 36.92 107.054 35.84C107.054 35.18 106.894 34.65 106.574 34.25C106.254 33.85 105.724 33.51 104.984 33.23C104.244 32.93 103.224 32.62 101.924 32.3C99.8441 31.76 98.3841 31.08 97.5441 30.26C96.7041 29.42 96.2841 28.27 96.2841 26.81C96.2841 25.11 96.9041 23.78 98.1441 22.82C99.3841 21.86 101.234 21.38 103.694 21.38C104.814 21.38 105.864 21.46 106.844 21.62C107.844 21.78 108.624 21.96 109.184 22.16V25.04C107.664 24.46 105.984 24.17 104.144 24.17C102.704 24.17 101.584 24.36 100.784 24.74C99.9841 25.12 99.5841 25.81 99.5841 26.81C99.5841 27.39 99.7241 27.86 100.004 28.22C100.284 28.58 100.764 28.89 101.444 29.15C102.144 29.41 103.104 29.7 104.324 30.02C105.904 30.42 107.124 30.9 107.984 31.46C108.864 32 109.474 32.64 109.814 33.38C110.174 34.1 110.354 34.92 110.354 35.84C110.354 37.54 109.724 38.88 108.464 39.86C107.204 40.82 105.294 41.3 102.734 41.3ZM118.515 41.3C116.995 41.3 115.855 40.9 115.095 40.1C114.355 39.28 113.985 38.17 113.985 36.77V29.33H111.885V26.78H113.985V23.51L117.225 22.52V26.78H121.005L120.795 29.33H117.225V36.59C117.225 37.41 117.415 37.99 117.795 38.33C118.175 38.65 118.795 38.81 119.655 38.81C120.195 38.81 120.765 38.71 121.365 38.51V40.82C120.585 41.14 119.635 41.3 118.515 41.3ZM130.677 41.3C128.117 41.3 126.237 40.66 125.037 39.38C123.857 38.1 123.267 36.27 123.267 33.89C123.267 31.51 123.867 29.68 125.067 28.4C126.267 27.12 128.137 26.48 130.677 26.48C133.237 26.48 135.117 27.12 136.317 28.4C137.517 29.68 138.117 31.51 138.117 33.89C138.117 36.27 137.517 38.1 136.317 39.38C135.137 40.66 133.257 41.3 130.677 41.3ZM130.677 38.54C132.177 38.54 133.237 38.18 133.857 37.46C134.497 36.72 134.817 35.53 134.817 33.89C134.817 32.25 134.497 31.07 133.857 30.35C133.237 29.63 132.177 29.27 130.677 29.27C129.197 29.27 128.137 29.63 127.497 30.35C126.877 31.07 126.567 32.25 126.567 33.89C126.567 35.53 126.877 36.72 127.497 37.46C128.137 38.18 129.197 38.54 130.677 38.54ZM141.298 47.48V26.78H144.118L144.298 28.19C144.938 27.61 145.638 27.18 146.398 26.9C147.158 26.62 148.058 26.48 149.098 26.48C151.138 26.48 152.728 27.04 153.868 28.16C155.008 29.26 155.578 31.09 155.578 33.65C155.578 36.21 154.988 38.13 153.808 39.41C152.628 40.67 151.018 41.3 148.978 41.3C147.258 41.3 145.788 40.9 144.568 40.1V47.48H141.298ZM148.138 38.84C150.898 38.84 152.278 37.1 152.278 33.62C152.278 31.94 151.968 30.75 151.348 30.05C150.728 29.33 149.688 28.97 148.228 28.97C146.768 28.97 145.548 29.47 144.568 30.47V37.58C145.028 37.96 145.538 38.27 146.098 38.51C146.678 38.73 147.358 38.84 148.138 38.84ZM165.673 41V21.68H168.943V38.48H178.843V41H165.673ZM187.873 41.3C185.393 41.3 183.473 40.69 182.113 39.47C180.753 38.25 180.073 36.38 180.073 33.86C180.073 31.58 180.653 29.78 181.813 28.46C182.973 27.14 184.733 26.48 187.093 26.48C189.253 26.48 190.873 27.05 191.953 28.19C193.053 29.31 193.603 30.76 193.603 32.54V35.18H183.193C183.353 36.56 183.853 37.51 184.693 38.03C185.533 38.55 186.813 38.81 188.533 38.81C189.253 38.81 189.993 38.74 190.753 38.6C191.513 38.46 192.173 38.28 192.733 38.06V40.46C192.093 40.74 191.353 40.95 190.513 41.09C189.693 41.23 188.813 41.3 187.873 41.3ZM183.193 33.05H190.723V32.06C190.723 31.08 190.453 30.32 189.913 29.78C189.373 29.22 188.463 28.94 187.183 28.94C185.663 28.94 184.613 29.27 184.033 29.93C183.473 30.59 183.193 31.63 183.193 33.05ZM201.226 41.3C200.326 41.3 199.486 41.14 198.706 40.82C197.946 40.5 197.336 40.02 196.876 39.38C196.416 38.72 196.186 37.91 196.186 36.95C196.186 35.59 196.646 34.5 197.566 33.68C198.506 32.84 199.946 32.42 201.886 32.42H206.446V31.79C206.446 31.11 206.336 30.57 206.116 30.17C205.916 29.77 205.536 29.48 204.976 29.3C204.436 29.12 203.636 29.03 202.576 29.03C200.896 29.03 199.326 29.28 197.866 29.78V27.35C198.506 27.09 199.286 26.88 200.206 26.72C201.126 26.56 202.116 26.48 203.176 26.48C205.256 26.48 206.836 26.9 207.916 27.74C209.016 28.58 209.566 29.95 209.566 31.85V41H206.776L206.566 39.56C205.986 40.12 205.266 40.55 204.406 40.85C203.566 41.15 202.506 41.3 201.226 41.3ZM202.096 38.96C203.076 38.96 203.926 38.8 204.646 38.48C205.386 38.14 205.986 37.69 206.446 37.13V34.64H201.946C200.986 34.64 200.286 34.83 199.846 35.21C199.426 35.57 199.216 36.13 199.216 36.89C199.216 37.63 199.466 38.16 199.966 38.48C200.466 38.8 201.176 38.96 202.096 38.96ZM213.193 41V26.78H216.193L216.373 28.43C217.053 27.99 217.863 27.59 218.803 27.23C219.743 26.87 220.673 26.62 221.593 26.48V28.97C221.033 29.07 220.423 29.22 219.763 29.42C219.123 29.6 218.513 29.81 217.933 30.05C217.353 30.27 216.863 30.5 216.463 30.74V41H213.193ZM223.974 41V26.78H226.974L227.124 28.28C227.764 27.78 228.524 27.36 229.404 27.02C230.304 26.66 231.294 26.48 232.374 26.48C234.214 26.48 235.554 26.91 236.394 27.77C237.234 28.63 237.654 29.97 237.654 31.79V41H234.414V31.94C234.414 30.84 234.184 30.07 233.724 29.63C233.284 29.19 232.444 28.97 231.204 28.97C230.464 28.97 229.734 29.12 229.014 29.42C228.314 29.72 227.724 30.11 227.244 30.59V41H223.974ZM242.518 23.81V21.11H246.088V23.81H242.518ZM242.788 41V29.27H240.628L240.928 26.78H246.058V41H242.788ZM249.872 41V26.78H252.872L253.022 28.28C253.662 27.78 254.422 27.36 255.302 27.02C256.202 26.66 257.192 26.48 258.272 26.48C260.112 26.48 261.452 26.91 262.292 27.77C263.132 28.63 263.552 29.97 263.552 31.79V41H260.312V31.94C260.312 30.84 260.082 30.07 259.622 29.63C259.182 29.19 258.342 28.97 257.102 28.97C256.362 28.97 255.632 29.12 254.912 29.42C254.212 29.72 253.622 30.11 253.142 30.59V41H249.872ZM272.976 46.28C271.916 46.28 270.856 46.21 269.796 46.07C268.736 45.95 267.836 45.76 267.096 45.5V42.98C267.896 43.24 268.816 43.44 269.856 43.58C270.896 43.72 271.886 43.79 272.826 43.79C274.266 43.79 275.316 43.71 275.976 43.55C276.636 43.39 276.966 43.03 276.966 42.47C276.966 42.05 276.806 41.75 276.486 41.57C276.166 41.41 275.556 41.33 274.656 41.33H270.816C268.236 41.33 266.946 40.42 266.946 38.6C266.946 38.02 267.116 37.48 267.456 36.98C267.796 36.48 268.336 36.1 269.076 35.84C268.256 35.44 267.646 34.89 267.246 34.19C266.866 33.49 266.676 32.65 266.676 31.67C266.676 29.85 267.216 28.53 268.296 27.71C269.396 26.89 271.036 26.48 273.216 26.48C273.676 26.48 274.156 26.52 274.656 26.6C275.156 26.66 275.546 26.72 275.826 26.78H281.046L280.956 28.91H278.556C278.936 29.23 279.216 29.63 279.396 30.11C279.576 30.59 279.666 31.11 279.666 31.67C279.666 33.19 279.206 34.39 278.286 35.27C277.366 36.13 275.976 36.56 274.116 36.56C273.796 36.56 273.496 36.55 273.216 36.53C272.956 36.49 272.666 36.45 272.346 36.41C271.746 36.47 271.206 36.63 270.726 36.89C270.246 37.15 270.006 37.5 270.006 37.94C270.006 38.24 270.126 38.46 270.366 38.6C270.606 38.72 271.006 38.78 271.566 38.78H275.556C276.976 38.78 278.066 39.09 278.826 39.71C279.606 40.31 279.996 41.19 279.996 42.35C279.996 43.75 279.386 44.75 278.166 45.35C276.966 45.97 275.236 46.28 272.976 46.28ZM273.216 34.49C274.516 34.49 275.416 34.27 275.916 33.83C276.436 33.39 276.696 32.64 276.696 31.58C276.696 30.52 276.436 29.75 275.916 29.27C275.416 28.79 274.516 28.55 273.216 28.55C271.996 28.55 271.106 28.78 270.546 29.24C269.986 29.7 269.706 30.48 269.706 31.58C269.706 32.6 269.966 33.34 270.486 33.8C271.026 34.26 271.936 34.49 273.216 34.49ZM283.228 43.31V41H296.848V43.31H283.228Z" fill="black"/>
<path d="M182.82 152L178.32 132.68H181.53L184.8 147.17L188.46 135.02V132.68H191.13L195.24 147.17L198.57 132.68H201.75L197.28 152H194.07L190.2 138.47L186.09 152H182.82ZM209.908 152.3C207.428 152.3 205.508 151.69 204.148 150.47C202.788 149.25 202.108 147.38 202.108 144.86C202.108 142.58 202.688 140.78 203.848 139.46C205.008 138.14 206.768 137.48 209.128 137.48C211.288 137.48 212.908 138.05 213.988 139.19C215.088 140.31 215.638 141.76 215.638 143.54V146.18H205.228C205.388 147.56 205.888 148.51 206.728 149.03C207.568 149.55 208.848 149.81 210.568 149.81C211.288 149.81 212.028 149.74 212.788 149.6C213.548 149.46 214.208 149.28 214.768 149.06V151.46C214.128 151.74 213.388 151.95 212.548 152.09C211.728 152.23 210.848 152.3 209.908 152.3ZM205.228 144.05H212.758V143.06C212.758 142.08 212.488 141.32 211.948 140.78C211.408 140.22 210.498 139.94 209.218 139.94C207.698 139.94 206.648 140.27 206.068 140.93C205.508 141.59 205.228 142.63 205.228 144.05ZM222.362 152.3C221.202 152.3 220.322 152.02 219.722 151.46C219.122 150.88 218.822 149.93 218.822 148.61V131.78H222.092V148.31C222.092 148.87 222.192 149.25 222.392 149.45C222.592 149.65 222.892 149.75 223.292 149.75C223.772 149.75 224.232 149.69 224.672 149.57V151.94C224.292 152.08 223.922 152.17 223.562 152.21C223.222 152.27 222.822 152.3 222.362 152.3ZM234.22 152.3C231.72 152.3 229.83 151.67 228.55 150.41C227.27 149.13 226.63 147.29 226.63 144.89C226.63 142.39 227.33 140.53 228.73 139.31C230.15 138.09 232.04 137.48 234.4 137.48C235.38 137.48 236.2 137.55 236.86 137.69C237.54 137.83 238.19 138.05 238.81 138.35V140.78C237.77 140.26 236.51 140 235.03 140C233.39 140 232.13 140.37 231.25 141.11C230.37 141.83 229.93 143.09 229.93 144.89C229.93 146.59 230.32 147.84 231.1 148.64C231.88 149.42 233.17 149.81 234.97 149.81C236.39 149.81 237.68 149.54 238.84 149V151.49C238.18 151.75 237.47 151.95 236.71 152.09C235.97 152.23 235.14 152.3 234.22 152.3ZM248.249 152.3C245.689 152.3 243.809 151.66 242.609 150.38C241.429 149.1 240.839 147.27 240.839 144.89C240.839 142.51 241.439 140.68 242.639 139.4C243.839 138.12 245.709 137.48 248.249 137.48C250.809 137.48 252.689 138.12 253.889 139.4C255.089 140.68 255.689 142.51 255.689 144.89C255.689 147.27 255.089 149.1 253.889 150.38C252.709 151.66 250.829 152.3 248.249 152.3ZM248.249 149.54C249.749 149.54 250.809 149.18 251.429 148.46C252.069 147.72 252.389 146.53 252.389 144.89C252.389 143.25 252.069 142.07 251.429 141.35C250.809 140.63 249.749 140.27 248.249 140.27C246.769 140.27 245.709 140.63 245.069 141.35C244.449 142.07 244.139 143.25 244.139 144.89C244.139 146.53 244.449 147.72 245.069 148.46C245.709 149.18 246.769 149.54 248.249 149.54ZM258.87 152V137.78H261.87L262.02 139.28C262.72 138.72 263.49 138.28 264.33 137.96C265.17 137.64 266.07 137.48 267.03 137.48C268.05 137.48 268.84 137.65 269.4 137.99C269.98 138.31 270.42 138.76 270.72 139.34C271.38 138.8 272.14 138.36 273 138.02C273.86 137.66 274.89 137.48 276.09 137.48C277.73 137.48 278.94 137.9 279.72 138.74C280.5 139.58 280.89 140.87 280.89 142.61V152H277.68V142.94C277.68 141.84 277.45 141.07 276.99 140.63C276.53 140.19 275.78 139.97 274.74 139.97C274.06 139.97 273.41 140.09 272.79 140.33C272.19 140.57 271.67 140.93 271.23 141.41C271.29 141.63 271.33 141.86 271.35 142.1C271.37 142.34 271.38 142.6 271.38 142.88V152H268.35V142.97C268.35 141.93 268.17 141.17 267.81 140.69C267.45 140.21 266.77 139.97 265.77 139.97C265.07 139.97 264.4 140.14 263.76 140.48C263.14 140.8 262.58 141.19 262.08 141.65V152H258.87ZM291.471 152.3C288.991 152.3 287.071 151.69 285.711 150.47C284.351 149.25 283.671 147.38 283.671 144.86C283.671 142.58 284.251 140.78 285.411 139.46C286.571 138.14 288.331 137.48 290.691 137.48C292.851 137.48 294.471 138.05 295.551 139.19C296.651 140.31 297.201 141.76 297.201 143.54V146.18H286.791C286.951 147.56 287.451 148.51 288.291 149.03C289.131 149.55 290.411 149.81 292.131 149.81C292.851 149.81 293.591 149.74 294.351 149.6C295.111 149.46 295.771 149.28 296.331 149.06V151.46C295.691 151.74 294.951 151.95 294.111 152.09C293.291 152.23 292.411 152.3 291.471 152.3ZM286.791 144.05H294.321V143.06C294.321 142.08 294.051 141.32 293.511 140.78C292.971 140.22 292.061 139.94 290.781 139.94C289.261 139.94 288.211 140.27 287.631 140.93C287.071 141.59 286.791 142.63 286.791 144.05ZM298.436 155.6L299.336 149.93H302.186L300.806 155.6H298.436ZM312.279 152V137.78H315.279L315.429 139.28C316.129 138.72 316.899 138.28 317.739 137.96C318.579 137.64 319.479 137.48 320.439 137.48C321.459 137.48 322.249 137.65 322.809 137.99C323.389 138.31 323.829 138.76 324.129 139.34C324.789 138.8 325.549 138.36 326.409 138.02C327.269 137.66 328.299 137.48 329.499 137.48C331.139 137.48 332.349 137.9 333.129 138.74C333.909 139.58 334.299 140.87 334.299 142.61V152H331.089V142.94C331.089 141.84 330.859 141.07 330.399 140.63C329.939 140.19 329.189 139.97 328.149 139.97C327.469 139.97 326.819 140.09 326.199 140.33C325.599 140.57 325.079 140.93 324.639 141.41C324.699 141.63 324.739 141.86 324.759 142.1C324.779 142.34 324.789 142.6 324.789 142.88V152H321.759V142.97C321.759 141.93 321.579 141.17 321.219 140.69C320.859 140.21 320.179 139.97 319.179 139.97C318.479 139.97 317.809 140.14 317.169 140.48C316.549 140.8 315.989 141.19 315.489 141.65V152H312.279ZM340.42 157.28C339.34 157.28 338.42 157.14 337.66 156.86V154.43C338 154.55 338.31 154.63 338.59 154.67C338.89 154.71 339.19 154.73 339.49 154.73C340.11 154.73 340.61 154.63 340.99 154.43C341.37 154.23 341.7 153.91 341.98 153.47C342.28 153.05 342.6 152.5 342.94 151.82L336.61 137.78H340L344.56 148.34L349.18 137.78H352.54L346.75 151.19C346.25 152.39 345.71 153.44 345.13 154.34C344.57 155.26 343.91 155.98 343.15 156.5C342.41 157.02 341.5 157.28 340.42 157.28ZM362.054 152V137.78H365.054L365.204 139.28C365.844 138.78 366.604 138.36 367.484 138.02C368.384 137.66 369.374 137.48 370.454 137.48C372.294 137.48 373.634 137.91 374.474 138.77C375.314 139.63 375.734 140.97 375.734 142.79V152H372.494V142.94C372.494 141.84 372.264 141.07 371.804 140.63C371.364 140.19 370.524 139.97 369.284 139.97C368.544 139.97 367.814 140.12 367.094 140.42C366.394 140.72 365.804 141.11 365.324 141.59V152H362.054ZM383.398 152.3C382.498 152.3 381.658 152.14 380.878 151.82C380.118 151.5 379.508 151.02 379.048 150.38C378.588 149.72 378.358 148.91 378.358 147.95C378.358 146.59 378.818 145.5 379.738 144.68C380.678 143.84 382.118 143.42 384.058 143.42H388.618V142.79C388.618 142.11 388.508 141.57 388.288 141.17C388.088 140.77 387.708 140.48 387.148 140.3C386.608 140.12 385.808 140.03 384.748 140.03C383.068 140.03 381.498 140.28 380.038 140.78V138.35C380.678 138.09 381.458 137.88 382.378 137.72C383.298 137.56 384.288 137.48 385.348 137.48C387.428 137.48 389.008 137.9 390.088 138.74C391.188 139.58 391.738 140.95 391.738 142.85V152H388.948L388.738 150.56C388.158 151.12 387.438 151.55 386.578 151.85C385.738 152.15 384.678 152.3 383.398 152.3ZM384.268 149.96C385.248 149.96 386.098 149.8 386.818 149.48C387.558 149.14 388.158 148.69 388.618 148.13V145.64H384.118C383.158 145.64 382.458 145.83 382.018 146.21C381.598 146.57 381.388 147.13 381.388 147.89C381.388 148.63 381.638 149.16 382.138 149.48C382.638 149.8 383.348 149.96 384.268 149.96ZM395.365 152V137.78H398.365L398.515 139.28C399.215 138.72 399.985 138.28 400.825 137.96C401.665 137.64 402.565 137.48 403.525 137.48C404.545 137.48 405.335 137.65 405.895 137.99C406.475 138.31 406.915 138.76 407.215 139.34C407.875 138.8 408.635 138.36 409.495 138.02C410.355 137.66 411.385 137.48 412.585 137.48C414.225 137.48 415.435 137.9 416.215 138.74C416.995 139.58 417.385 140.87 417.385 142.61V152H414.175V142.94C414.175 141.84 413.945 141.07 413.485 140.63C413.025 140.19 412.275 139.97 411.235 139.97C410.555 139.97 409.905 140.09 409.285 140.33C408.685 140.57 408.165 140.93 407.725 141.41C407.785 141.63 407.825 141.86 407.845 142.1C407.865 142.34 407.875 142.6 407.875 142.88V152H404.845V142.97C404.845 141.93 404.665 141.17 404.305 140.69C403.945 140.21 403.265 139.97 402.265 139.97C401.565 139.97 400.895 140.14 400.255 140.48C399.635 140.8 399.075 141.19 398.575 141.65V152H395.365ZM427.965 152.3C425.485 152.3 423.565 151.69 422.205 150.47C420.845 149.25 420.165 147.38 420.165 144.86C420.165 142.58 420.745 140.78 421.905 139.46C423.065 138.14 424.825 137.48 427.185 137.48C429.345 137.48 430.965 138.05 432.045 139.19C433.145 140.31 433.695 141.76 433.695 143.54V146.18H423.285C423.445 147.56 423.945 148.51 424.785 149.03C425.625 149.55 426.905 149.81 428.625 149.81C429.345 149.81 430.085 149.74 430.845 149.6C431.605 149.46 432.265 149.28 432.825 149.06V151.46C432.185 151.74 431.445 151.95 430.605 152.09C429.785 152.23 428.905 152.3 427.965 152.3ZM423.285 144.05H430.815V143.06C430.815 142.08 430.545 141.32 430.005 140.78C429.465 140.22 428.555 139.94 427.275 139.94C425.755 139.94 424.705 140.27 424.125 140.93C423.565 141.59 423.285 142.63 423.285 144.05ZM444.992 134.81V132.11H448.562V134.81H444.992ZM445.262 152V140.27H443.102L443.402 137.78H448.532V152H445.262ZM457.087 152.3C456.107 152.3 455.167 152.23 454.267 152.09C453.387 151.95 452.657 151.78 452.077 151.58V148.82C452.757 149.08 453.507 149.28 454.327 149.42C455.147 149.56 455.927 149.63 456.667 149.63C457.787 149.63 458.587 149.53 459.067 149.33C459.547 149.13 459.787 148.74 459.787 148.16C459.787 147.74 459.637 147.41 459.337 147.17C459.057 146.93 458.627 146.71 458.047 146.51C457.487 146.31 456.767 146.07 455.887 145.79C455.047 145.51 454.317 145.21 453.697 144.89C453.077 144.55 452.597 144.12 452.257 143.6C451.917 143.08 451.747 142.4 451.747 141.56C451.747 140.26 452.217 139.26 453.157 138.56C454.097 137.84 455.607 137.48 457.687 137.48C458.507 137.48 459.287 137.54 460.027 137.66C460.767 137.78 461.397 137.93 461.917 138.11V140.84C461.357 140.62 460.737 140.45 460.057 140.33C459.397 140.21 458.777 140.15 458.197 140.15C457.157 140.15 456.367 140.24 455.827 140.42C455.307 140.6 455.047 140.96 455.047 141.5C455.047 142.06 455.317 142.46 455.857 142.7C456.417 142.92 457.307 143.23 458.527 143.63C459.647 143.97 460.537 144.33 461.197 144.71C461.857 145.09 462.327 145.55 462.607 146.09C462.907 146.61 463.057 147.29 463.057 148.13C463.057 149.53 462.547 150.58 461.527 151.28C460.507 151.96 459.027 152.3 457.087 152.3ZM178.89 197V177.68H186.72C189.58 177.68 191.7 178.44 193.08 179.96C194.46 181.46 195.15 183.96 195.15 187.46C195.15 190.76 194.47 193.18 193.11 194.72C191.75 196.24 189.62 197 186.72 197H178.89ZM182.16 194.48H186.21C187.47 194.48 188.52 194.3 189.36 193.94C190.2 193.56 190.83 192.86 191.25 191.84C191.67 190.82 191.88 189.36 191.88 187.46C191.88 185.56 191.69 184.09 191.31 183.05C190.93 182.01 190.32 181.28 189.48 180.86C188.66 180.44 187.57 180.23 186.21 180.23H182.16V194.48ZM202.373 197.3C201.473 197.3 200.633 197.14 199.853 196.82C199.093 196.5 198.483 196.02 198.023 195.38C197.563 194.72 197.333 193.91 197.333 192.95C197.333 191.59 197.793 190.5 198.713 189.68C199.653 188.84 201.093 188.42 203.033 188.42H207.593V187.79C207.593 187.11 207.483 186.57 207.263 186.17C207.063 185.77 206.683 185.48 206.123 185.3C205.583 185.12 204.783 185.03 203.723 185.03C202.043 185.03 200.473 185.28 199.013 185.78V183.35C199.653 183.09 200.433 182.88 201.353 182.72C202.273 182.56 203.263 182.48 204.323 182.48C206.403 182.48 207.983 182.9 209.063 183.74C210.163 184.58 210.713 185.95 210.713 187.85V197H207.923L207.713 195.56C207.133 196.12 206.413 196.55 205.553 196.85C204.713 197.15 203.653 197.3 202.373 197.3ZM203.243 194.96C204.223 194.96 205.073 194.8 205.793 194.48C206.533 194.14 207.133 193.69 207.593 193.13V190.64H203.093C202.133 190.64 201.433 190.83 200.993 191.21C200.573 191.57 200.363 192.13 200.363 192.89C200.363 193.63 200.613 194.16 201.113 194.48C201.613 194.8 202.323 194.96 203.243 194.96ZM218.002 197L212.392 182.78H215.782L219.772 193.82L223.762 182.78H227.122L221.542 197H218.002ZM230.481 179.81V177.11H234.051V179.81H230.481ZM230.751 197V185.27H228.591L228.891 182.78H234.021V197H230.751ZM243.715 197.3C242.435 197.3 241.305 197.08 240.325 196.64C239.345 196.2 238.585 195.47 238.045 194.45C237.505 193.43 237.235 192.06 237.235 190.34C237.235 188.64 237.525 187.21 238.105 186.05C238.685 184.87 239.485 183.98 240.505 183.38C241.545 182.78 242.715 182.48 244.015 182.48C244.875 182.48 245.635 182.58 246.295 182.78C246.975 182.98 247.625 183.29 248.245 183.71V176.78H251.515V197H248.725L248.515 195.59C247.875 196.17 247.175 196.6 246.415 196.88C245.655 197.16 244.755 197.3 243.715 197.3ZM244.585 194.84C246.045 194.84 247.265 194.34 248.245 193.34V186.23C247.305 185.39 246.125 184.97 244.705 184.97C243.325 184.97 242.285 185.43 241.585 186.35C240.885 187.27 240.535 188.61 240.535 190.37C240.535 192.07 240.855 193.24 241.495 193.88C242.155 194.52 243.185 194.84 244.585 194.84ZM269.02 197L261.64 177.68H265.03L270.82 193.49L276.61 177.68H280L272.68 197H269.02ZM283.069 179.81V177.11H286.639V179.81H283.069ZM283.339 197V185.27H281.179L281.479 182.78H286.609V197H283.339ZM297.623 197.3C295.143 197.3 293.223 196.69 291.863 195.47C290.503 194.25 289.823 192.38 289.823 189.86C289.823 187.58 290.403 185.78 291.563 184.46C292.723 183.14 294.483 182.48 296.843 182.48C299.003 182.48 300.623 183.05 301.703 184.19C302.803 185.31 303.353 186.76 303.353 188.54V191.18H292.943C293.103 192.56 293.603 193.51 294.443 194.03C295.283 194.55 296.563 194.81 298.283 194.81C299.003 194.81 299.743 194.74 300.503 194.6C301.263 194.46 301.923 194.28 302.483 194.06V196.46C301.843 196.74 301.103 196.95 300.263 197.09C299.443 197.23 298.563 197.3 297.623 197.3ZM292.943 189.05H300.473V188.06C300.473 187.08 300.203 186.32 299.663 185.78C299.123 185.22 298.213 184.94 296.933 184.94C295.413 184.94 294.363 185.27 293.783 185.93C293.223 186.59 292.943 187.63 292.943 189.05ZM307.151 179.81V177.11H310.721V179.81H307.151ZM307.421 197V185.27H305.261L305.561 182.78H310.691V197H307.421ZM314.505 197V182.78H317.505L317.685 184.43C318.365 183.99 319.175 183.59 320.115 183.23C321.055 182.87 321.985 182.62 322.905 182.48V184.97C322.345 185.07 321.735 185.22 321.075 185.42C320.435 185.6 319.825 185.81 319.245 186.05C318.665 186.27 318.175 186.5 317.775 186.74V197H314.505ZM328.818 197.3C327.918 197.3 327.078 197.14 326.298 196.82C325.538 196.5 324.928 196.02 324.468 195.38C324.008 194.72 323.778 193.91 323.778 192.95C323.778 191.59 324.238 190.5 325.158 189.68C326.098 188.84 327.538 188.42 329.478 188.42H334.038V187.79C334.038 187.11 333.928 186.57 333.708 186.17C333.508 185.77 333.128 185.48 332.568 185.3C332.028 185.12 331.228 185.03 330.168 185.03C328.488 185.03 326.918 185.28 325.458 185.78V183.35C326.098 183.09 326.878 182.88 327.798 182.72C328.718 182.56 329.708 182.48 330.768 182.48C332.848 182.48 334.428 182.9 335.508 183.74C336.608 184.58 337.158 185.95 337.158 187.85V197H334.368L334.158 195.56C333.578 196.12 332.858 196.55 331.998 196.85C331.158 197.15 330.098 197.3 328.818 197.3ZM329.688 194.96C330.668 194.96 331.518 194.8 332.238 194.48C332.978 194.14 333.578 193.69 334.038 193.13V190.64H329.538C328.578 190.64 327.878 190.83 327.438 191.21C327.018 191.57 326.808 192.13 326.808 192.89C326.808 193.63 327.058 194.16 327.558 194.48C328.058 194.8 328.768 194.96 329.688 194.96ZM340.185 199.31V197H353.805V199.31H340.185Z" fill="black"/>
</g>
<defs>
<linearGradient id="paint0_linear" x1="250" y1="0" x2="250" y2="300" gradientUnits="userSpaceOnUse">
<stop stop-color="#2E11E0"/>
<stop offset="1" stop-color="#050314"/>
</linearGradient>
<clipPath id="clip0">
<rect width="500" height="300" rx="5" fill="white"/>
</clipPath>
<clipPath id="clip1">
<rect width="150" height="150" fill="white" transform="translate(19 126)"/>
</clipPath>
</defs>
</svg>
